<!DOCTYPE svg PUBLIC "-//W3C//DTD SVG 1.1//EN" "http://www.w3.org/Graphics/SVG/1.1/DTD/svg11.dtd">
<!-- Uploaded to: SVG Repo, www.svgrepo.com, Transformed by: SVG Repo Mixer Tools -->
<svg height="64px" width="64px" version="1.1" id="Capa_1" xmlns="http://www.w3.org/2000/svg" xmlns:xlink="http://www.w3.org/1999/xlink" viewBox="0 0 317.215 317.215" xml:space="preserve" fill="#000000">
<g id="SVGRepo_bgCarrier" stroke-width="0"/>
<g id="SVGRepo_tracerCarrier" stroke-linecap="round" stroke-linejoin="round"/>
<g id="SVGRepo_iconCarrier"> <g> <path style="fill:#ffbf69;" d="M309.715,1.108h-71.223c-4.142,0-7.5,3.358-7.5,7.5v20c0,4.142,3.358,7.5,7.5,7.5h18.973 l-57.128,57.127c-2.929,2.929-2.929,7.677-0.001,10.606l14.142,14.143c1.407,1.407,3.314,2.197,5.304,2.197s3.897-0.79,5.303-2.197 l57.129-57.128V79.83c0,4.142,3.358,7.5,7.5,7.5h20c4.142,0,7.5-3.358,7.5-7.5V8.608C317.215,4.466,313.857,1.108,309.715,1.108z"/> <path style="fill:#ffbf69;" d="M102.734,199.233c-1.407-1.406-3.314-2.197-5.304-2.197c-1.989,0-3.897,0.79-5.303,2.197L35,256.36 v-18.975c0-4.142-3.358-7.5-7.5-7.5h-20c-4.142,0-7.5,3.358-7.5,7.5v71.223c0,4.142,3.358,7.5,7.5,7.5h71.223 c4.142,0,7.5-3.358,7.5-7.5v-20c0-4.142-3.358-7.5-7.5-7.5H59.749l57.126-57.125c2.929-2.929,2.929-7.677,0-10.606L102.734,199.233 z"/> </g> </g>
</svg>